<svg version="1.1" id="Layer_1" xmlns="http://www.w3.org/2000/svg" xmlns:xlink="http://www.w3.org/1999/xlink" x="0px" y="0px"
	 width="100%" viewBox="0 0 794 813" enable-background="new 0 0 794 813" xml:space="preserve">
<path fill="#FFFFFF" opacity="1.000000" stroke="none" 
	d="
M1.000000,304.000000 
	C1.000000,202.666672 1.000000,101.833336 1.000000,1.000000 
	C265.666656,1.000000 530.333313,1.000000 795.000000,1.000000 
	C795.000000,272.000000 795.000000,543.000000 795.000000,814.000000 
	C530.333313,814.000000 265.666656,814.000000 1.000000,814.000000 
	C1.000000,644.166687 1.000000,474.333344 1.000000,304.000000 
M134.989227,487.602600 
	C132.659317,469.909546 129.085236,452.268982 128.335388,434.509216 
	C127.520271,415.204071 129.093491,395.776123 130.066971,376.423950 
	C130.916885,359.527985 135.118011,343.226440 139.899185,327.054688 
	C146.594147,304.409821 156.269791,282.946533 166.815643,261.973633 
	C174.271774,247.145355 182.992386,232.774139 192.675858,219.296234 
	C201.861923,206.510635 212.750824,194.891068 223.445892,183.269485 
	C229.449722,176.745575 236.360703,170.990723 243.247467,165.359604 
	C255.538422,155.309631 267.543365,144.741669 280.746277,136.023376 
	C293.504700,127.598610 307.534943,121.062607 321.175232,114.023865 
	C330.178833,109.377754 339.297668,104.854774 348.687012,101.077271 
	C368.128235,93.255714 388.291443,87.713211 409.076965,84.985405 
	C427.462006,82.572632 445.916840,80.402222 464.410919,79.227333 
	C474.198578,78.605545 484.145203,80.214264 494.002289,81.030769 
	C504.646912,81.912514 515.414612,82.270134 525.876648,84.213089 
	C557.329224,90.054260 587.268311,100.716629 616.054871,114.569977 
	C644.376526,128.199600 670.505432,145.317078 693.737976,166.456360 
	C710.731812,181.919022 726.134338,198.962875 740.173706,217.268539 
	C754.465332,235.902924 765.673950,256.238525 775.717346,277.824280 
	C776.295410,267.703674 753.734741,219.286209 738.383118,195.893356 
	C695.883606,131.132156 638.468079,84.867081 565.652832,58.332672 
	C439.277710,12.280676 283.481384,45.870960 184.296814,168.476196 
	C98.699860,274.285339 93.591492,416.136383 141.642838,520.617249 
	C142.057541,520.528259 142.472260,520.439331 142.886963,520.350342 
	C140.258194,509.721527 137.629440,499.092682 134.989227,487.602600 
M718.503967,635.994812 
	C730.853699,616.335632 740.723999,595.430054 748.568848,573.648438 
	C754.920410,556.013062 760.559204,538.084167 763.005066,519.373169 
	C764.760986,505.940674 767.304138,492.519867 767.789978,479.032349 
	C768.675476,454.448334 768.729675,429.780029 763.955383,405.458282 
	C761.589600,393.406006 759.350464,381.276947 756.011169,369.477783 
	C747.101929,337.997650 733.736389,308.389313 717.054810,280.254211 
	C705.199646,260.259247 691.598511,241.575348 675.345764,224.932434 
	C667.709106,217.112427 659.872986,209.438034 651.620972,202.281357 
	C642.639099,194.491638 633.360901,186.972504 623.696594,180.055435 
	C603.228699,165.405884 581.629211,152.803375 557.760071,144.230270 
	C531.575928,134.825684 505.683777,124.484146 477.621338,122.029160 
	C459.937134,120.482101 442.231537,119.089859 424.508698,118.118179 
	C417.455353,117.731476 410.307312,118.421577 403.242188,119.061401 
	C393.968658,119.901237 384.591248,120.495674 375.513794,122.407707 
	C357.626526,126.175392 339.902466,130.726303 322.139801,135.071289 
	C317.769684,136.140305 313.510590,137.663345 309.200470,138.977661 
	C309.311554,139.391418 309.422668,139.805191 309.533783,140.218964 
	C312.124420,139.930267 314.723663,139.703110 317.304382,139.342926 
	C334.730743,136.910812 352.091003,133.238205 369.594360,132.341019 
	C387.028259,131.447388 404.636139,132.888809 422.107574,134.143585 
	C434.606171,135.041199 447.060852,136.988510 459.437744,139.051743 
	C485.373993,143.375336 509.431122,153.294815 532.729431,165.055740 
	C544.863525,171.181000 556.631653,178.052795 568.409973,184.855896 
	C585.532593,194.745834 601.240479,206.623978 615.598328,220.186966 
	C629.969666,233.762665 643.465881,248.190872 654.864868,264.413971 
	C664.544922,278.190674 675.531982,291.344666 683.146118,306.205994 
	C693.794250,326.989136 702.208008,348.958008 710.883484,370.696686 
	C716.900757,385.774414 720.272339,401.671844 722.028137,417.843170 
	C723.760071,433.795166 726.038696,449.728821 726.825073,465.732025 
	C727.794861,485.466705 725.889099,505.139313 721.995789,524.549500 
	C719.194641,538.514893 716.969299,552.663025 713.079163,566.328735 
	C705.153259,594.171814 692.593018,620.079163 678.003784,645.042786 
	C664.964233,667.354736 649.574829,687.899231 631.802307,706.604187 
	C615.803894,723.442017 597.979187,738.281128 578.887878,751.446350 
	C561.428284,763.486206 543.434875,774.755798 523.400146,782.261414 
	C520.520752,783.340027 517.780884,784.785706 514.932251,785.953552 
	C512.152588,787.093140 509.316071,788.094177 506.504517,789.156067 
	C506.768250,789.615967 507.031952,790.075867 507.295654,790.535767 
	C596.837036,765.811951 668.535400,716.490479 718.503967,635.994812 
M335.516357,770.999878 
	C355.892487,771.086853 376.322845,771.672241 396.472076,767.937988 
	C411.754486,765.105713 427.176727,762.528625 442.076904,758.240295 
	C470.427185,750.080872 497.324249,738.239868 522.999451,723.580627 
	C544.838623,711.111572 565.092957,696.607422 583.280762,679.226257 
	C600.902954,662.385620 617.543701,644.624512 630.987549,624.243896 
	C640.113831,610.408630 649.481812,596.452576 656.289673,581.438782 
	C664.861206,562.535461 671.250122,542.607300 677.994751,522.920532 
	C685.072632,502.260864 688.501160,480.865570 689.032410,459.009674 
	C689.164795,453.561920 689.415771,448.089417 690.087402,442.687347 
	C692.561951,422.784027 690.970520,402.989990 687.531616,383.446564 
	C684.497070,366.200745 679.971191,349.213654 675.971375,332.143372 
	C674.584167,326.222931 672.799683,320.395569 671.196716,314.525665 
	C670.503174,314.493652 669.809692,314.461609 669.116211,314.429596 
	C691.031433,418.534668 671.609314,514.128174 606.251404,597.513977 
	C541.132080,680.595337 453.898346,724.412354 348.064575,729.353577 
	C296.239044,731.773315 246.477386,721.546753 199.535828,699.627747 
	C114.110146,659.738708 53.429726,596.183105 19.156343,507.284760 
	C19.156343,509.374207 18.816217,510.953979 19.207058,512.325439 
	C25.644991,534.915649 33.487324,557.011719 43.670628,578.192261 
	C54.461849,600.637268 67.903160,621.385620 83.264809,641.061401 
	C98.851822,661.025818 116.290421,679.040710 135.735931,695.106018 
	C155.193604,711.181274 176.461853,724.665955 199.058762,735.856262 
	C218.515579,745.491699 238.658630,753.561157 259.676178,759.288513 
	C284.196930,765.970581 309.046753,770.470703 335.516357,770.999878 
M41.926991,424.628418 
	C42.763527,428.684357 43.323002,432.821198 44.480377,436.783417 
	C53.827995,468.784302 66.609772,499.334930 83.148338,528.316895 
	C103.156052,563.378235 129.309784,593.238342 160.405777,618.712524 
	C190.293991,643.197327 223.505737,661.624939 260.199768,674.481445 
	C297.645233,687.601196 335.731079,694.642395 375.321899,694.015381 
	C381.906677,693.911072 388.526947,694.416016 395.073608,693.905640 
	C405.788177,693.070251 416.658203,692.553528 427.101288,690.258301 
	C449.260315,685.388062 471.189270,679.469727 493.200409,673.932800 
	C494.286835,673.659546 495.257843,672.927246 496.282562,672.408691 
	C496.230865,671.896606 496.179199,671.384583 496.127533,670.872559 
	C401.436920,692.108154 312.698669,678.885376 231.085114,625.612793 
	C149.442352,572.321228 100.601540,496.372803 81.801048,401.726807 
	C66.022285,322.292938 79.910789,246.645477 119.559799,175.926788 
	C159.174149,105.269928 216.848724,55.040840 291.730957,24.236404 
	C290.344513,24.160791 289.040558,24.242331 287.816467,24.598412 
	C261.275635,32.319061 235.766342,42.487778 211.432877,55.721497 
	C184.409180,70.418289 160.390121,89.138687 137.875763,109.838280 
	C129.717758,117.338707 122.071144,125.606125 115.342346,134.404007 
	C103.372887,150.053986 91.292374,165.772476 81.059105,182.560028 
	C66.591331,206.294250 55.920845,231.921326 47.884659,258.640381 
	C39.228130,287.421936 34.984516,316.865509 34.166870,346.773834 
	C33.823551,359.332031 34.847595,371.989838 36.124977,384.513092 
	C37.466000,397.660309 39.854916,410.700623 41.926991,424.628418 
z"/>
<path fill="#E62D1E" opacity="1.000000" stroke="none" 
	d="
M134.994949,488.033234 
	C137.629440,499.092682 140.258194,509.721527 142.886963,520.350342 
	C142.472260,520.439331 142.057541,520.528259 141.642838,520.617249 
	C93.591492,416.136383 98.699860,274.285339 184.296814,168.476196 
	C283.481384,45.870960 439.277710,12.280676 565.652832,58.332672 
	C638.468079,84.867081 695.883606,131.132156 738.383118,195.893356 
	C753.734741,219.286209 776.295410,267.703674 775.717346,277.824280 
	C765.673950,256.238525 754.465332,235.902924 740.173706,217.268539 
	C726.134338,198.962875 710.731812,181.919022 693.737976,166.456360 
	C670.505432,145.317078 644.376526,128.199600 616.054871,114.569977 
	C587.268311,100.716629 557.329224,90.054260 525.876648,84.213089 
	C515.414612,82.270134 504.646912,81.912514 494.002289,81.030769 
	C484.145203,80.214264 474.198578,78.605545 464.410919,79.227333 
	C445.916840,80.402222 427.462006,82.572632 409.076965,84.985405 
	C388.291443,87.713211 368.128235,93.255714 348.687012,101.077271 
	C339.297668,104.854774 330.178833,109.377754 321.175232,114.023865 
	C307.534943,121.062607 293.504700,127.598610 280.746277,136.023376 
	C267.543365,144.741669 255.538422,155.309631 243.247467,165.359604 
	C236.360703,170.990723 229.449722,176.745575 223.445892,183.269485 
	C212.750824,194.891068 201.861923,206.510635 192.675858,219.296234 
	C182.992386,232.774139 174.271774,247.145355 166.815643,261.973633 
	C156.269791,282.946533 146.594147,304.409821 139.899185,327.054688 
	C135.118011,343.226440 130.916885,359.527985 130.066971,376.423950 
	C129.093491,395.776123 127.520271,415.204071 128.335388,434.509216 
	C129.085236,452.268982 132.659317,469.909546 134.994949,488.033234 
z"/>
<path fill="#FED000" opacity="1.000000" stroke="none" 
	d="
M718.279541,636.294678 
	C668.535400,716.490479 596.837036,765.811951 507.295654,790.535767 
	C507.031952,790.075867 506.768250,789.615967 506.504517,789.156067 
	C509.316071,788.094177 512.152588,787.093140 514.932251,785.953552 
	C517.780884,784.785706 520.520752,783.340027 523.400146,782.261414 
	C543.434875,774.755798 561.428284,763.486206 578.887878,751.446350 
	C597.979187,738.281128 615.803894,723.442017 631.802307,706.604187 
	C649.574829,687.899231 664.964233,667.354736 678.003784,645.042786 
	C692.593018,620.079163 705.153259,594.171814 713.079163,566.328735 
	C716.969299,552.663025 719.194641,538.514893 721.995789,524.549500 
	C725.889099,505.139313 727.794861,485.466705 726.825073,465.732025 
	C726.038696,449.728821 723.760071,433.795166 722.028137,417.843170 
	C720.272339,401.671844 716.900757,385.774414 710.883484,370.696686 
	C702.208008,348.958008 693.794250,326.989136 683.146118,306.205994 
	C675.531982,291.344666 664.544922,278.190674 654.864868,264.413971 
	C643.465881,248.190872 629.969666,233.762665 615.598328,220.186966 
	C601.240479,206.623978 585.532593,194.745834 568.409973,184.855896 
	C556.631653,178.052795 544.863525,171.181000 532.729431,165.055740 
	C509.431122,153.294815 485.373993,143.375336 459.437744,139.051743 
	C447.060852,136.988510 434.606171,135.041199 422.107574,134.143585 
	C404.636139,132.888809 387.028259,131.447388 369.594360,132.341019 
	C352.091003,133.238205 334.730743,136.910812 317.304382,139.342926 
	C314.723663,139.703110 312.124420,139.930267 309.533783,140.218964 
	C309.422668,139.805191 309.311554,139.391418 309.200470,138.977661 
	C313.510590,137.663345 317.769684,136.140305 322.139801,135.071289 
	C339.902466,130.726303 357.626526,126.175392 375.513794,122.407707 
	C384.591248,120.495674 393.968658,119.901237 403.242188,119.061401 
	C410.307312,118.421577 417.455353,117.731476 424.508698,118.118179 
	C442.231537,119.089859 459.937134,120.482101 477.621338,122.029160 
	C505.683777,124.484146 531.575928,134.825684 557.760071,144.230270 
	C581.629211,152.803375 603.228699,165.405884 623.696594,180.055435 
	C633.360901,186.972504 642.639099,194.491638 651.620972,202.281357 
	C659.872986,209.438034 667.709106,217.112427 675.345764,224.932434 
	C691.598511,241.575348 705.199646,260.259247 717.054810,280.254211 
	C733.736389,308.389313 747.101929,337.997650 756.011169,369.477783 
	C759.350464,381.276947 761.589600,393.406006 763.955383,405.458282 
	C768.729675,429.780029 768.675476,454.448334 767.789978,479.032349 
	C767.304138,492.519867 764.760986,505.940674 763.005066,519.373169 
	C760.559204,538.084167 754.920410,556.013062 748.568848,573.648438 
	C740.723999,595.430054 730.853699,616.335632 718.279541,636.294678 
z"/>
<path fill="#4EAD33" opacity="1.000000" stroke="none" 
	d="
M335.020294,770.999878 
	C309.046753,770.470703 284.196930,765.970581 259.676178,759.288513 
	C238.658630,753.561157 218.515579,745.491699 199.058762,735.856262 
	C176.461853,724.665955 155.193604,711.181274 135.735931,695.106018 
	C116.290421,679.040710 98.851822,661.025818 83.264809,641.061401 
	C67.903160,621.385620 54.461849,600.637268 43.670628,578.192261 
	C33.487324,557.011719 25.644991,534.915649 19.207058,512.325439 
	C18.816217,510.953979 19.156343,509.374207 19.156343,507.284760 
	C53.429726,596.183105 114.110146,659.738708 199.535828,699.627747 
	C246.477386,721.546753 296.239044,731.773315 348.064575,729.353577 
	C453.898346,724.412354 541.132080,680.595337 606.251404,597.513977 
	C671.609314,514.128174 691.031433,418.534668 669.116211,314.429596 
	C669.809692,314.461609 670.503174,314.493652 671.196716,314.525665 
	C672.799683,320.395569 674.584167,326.222931 675.971375,332.143372 
	C679.971191,349.213654 684.497070,366.200745 687.531616,383.446564 
	C690.970520,402.989990 692.561951,422.784027 690.087402,442.687347 
	C689.415771,448.089417 689.164795,453.561920 689.032410,459.009674 
	C688.501160,480.865570 685.072632,502.260864 677.994751,522.920532 
	C671.250122,542.607300 664.861206,562.535461 656.289673,581.438782 
	C649.481812,596.452576 640.113831,610.408630 630.987549,624.243896 
	C617.543701,644.624512 600.902954,662.385620 583.280762,679.226257 
	C565.092957,696.607422 544.838623,711.111572 522.999451,723.580627 
	C497.324249,738.239868 470.427185,750.080872 442.076904,758.240295 
	C427.176727,762.528625 411.754486,765.105713 396.472076,767.937988 
	C376.322845,771.672241 355.892487,771.086853 335.020294,770.999878 
z"/>
<path fill="#172459" opacity="1.000000" stroke="none" 
	d="
M41.856438,424.208038 
	C39.854916,410.700623 37.466000,397.660309 36.124977,384.513092 
	C34.847595,371.989838 33.823551,359.332031 34.166870,346.773834 
	C34.984516,316.865509 39.228130,287.421936 47.884659,258.640381 
	C55.920845,231.921326 66.591331,206.294250 81.059105,182.560028 
	C91.292374,165.772476 103.372887,150.053986 115.342346,134.404007 
	C122.071144,125.606125 129.717758,117.338707 137.875763,109.838280 
	C160.390121,89.138687 184.409180,70.418289 211.432877,55.721497 
	C235.766342,42.487778 261.275635,32.319061 287.816467,24.598412 
	C289.040558,24.242331 290.344513,24.160791 291.730957,24.236404 
	C216.848724,55.040840 159.174149,105.269928 119.559799,175.926788 
	C79.910789,246.645477 66.022285,322.292938 81.801048,401.726807 
	C100.601540,496.372803 149.442352,572.321228 231.085114,625.612793 
	C312.698669,678.885376 401.436920,692.108154 496.127533,670.872559 
	C496.179199,671.384583 496.230865,671.896606 496.282562,672.408691 
	C495.257843,672.927246 494.286835,673.659546 493.200409,673.932800 
	C471.189270,679.469727 449.260315,685.388062 427.101288,690.258301 
	C416.658203,692.553528 405.788177,693.070251 395.073608,693.905640 
	C388.526947,694.416016 381.906677,693.911072 375.321899,694.015381 
	C335.731079,694.642395 297.645233,687.601196 260.199768,674.481445 
	C223.505737,661.624939 190.293991,643.197327 160.405777,618.712524 
	C129.309784,593.238342 103.156052,563.378235 83.148338,528.316895 
	C66.609772,499.334930 53.827995,468.784302 44.480377,436.783417 
	C43.323002,432.821198 42.763527,428.684357 41.856438,424.208038 
z"/>
</svg>